<?xml version="1.0" encoding="utf-8"?>
<!-- Generator: Adobe Illustrator 23.0.4, SVG Export Plug-In . SVG Version: 6.00 Build 0)  -->
<svg version="1.1" id="Layer_1" xmlns="http://www.w3.org/2000/svg" xmlns:xlink="http://www.w3.org/1999/xlink" x="0px" y="0px"
	 viewBox="0 0 1080 1080" style="enable-background:new 0 0 1080 1080;" xml:space="preserve">
<g>
	<g>
		<path d="M363.94,218.54l11.73,10.07l-1.28-15.36l1.07-0.54l11.59,10.14l-1.2-15.4l1.93-0.98l1.32,20.67l-12.52-10.74l1.21,16.47
			l-15.84-13.32L363.94,218.54z"/>
		<path d="M409.97,207.17c0.14,0.33,0.15,0.37,0.29,0.79l-14.49,6.09c1.22,2.48,4.85,5.25,9.32,3.37c2.58-1.08,4-3.38,4.54-5.29
			l1.85,0.79c-0.8,2.64-2.84,5.23-5.6,6.39c-5.02,2.11-10.33-0.43-12.35-5.22c-2-4.76-0.44-10.23,4.58-12.34
			C402.56,199.87,407.79,202.01,409.97,207.17z M407.56,207.01c-0.88-1.89-4.25-5.25-8.67-3.39c-4.68,1.97-4.5,6.75-3.79,8.63
			L407.56,207.01z"/>
		<path d="M417.73,213.99l-9.98-28.55l1.93-0.67l4.91,14.05c0.22-0.84,1.2-3.98,5.12-5.35c4.8-1.68,9.87,0.71,11.74,6.07
			s-0.61,10.38-5.41,12.06c-4.53,1.58-7.56-1.13-7.56-1.13l1.02,2.91L417.73,213.99z M417.9,208.17c0,0,3.02,3.06,7.47,1.5
			c3.85-1.35,5.44-5.42,4.04-9.42s-5.18-6.2-9.03-4.85c-4.46,1.56-4.91,5.83-4.91,5.83L417.9,208.17z"/>
		<path d="M437.17,202.37c0,0,2.66,2.61,6.81,1.42c1.92-0.55,4.36-2.08,3.7-4.39c-0.57-2-2.9-2-5.81-1.83
			c-4.09,0.25-6.89-0.52-7.73-3.45c-0.71-2.5,0.93-5.63,4.77-6.73c4.11-1.18,6.97,0.67,6.97,0.67L445,189.9c0,0-2.37-1.44-5.52-0.54
			c-2.38,0.68-3.81,2.38-3.29,4.19c0.62,2.15,3.1,2.11,6.25,1.92c3.48-0.2,6.42,0.2,7.32,3.35c0.96,3.34-1.9,5.99-5.21,6.94
			c-5.19,1.49-8.57-1.58-8.57-1.58L437.17,202.37z"/>
		<path d="M450.64,176.99c0.86-0.21,1.73,0.32,1.94,1.17s-0.32,1.73-1.17,1.94c-0.85,0.21-1.73-0.32-1.94-1.17
			S449.79,177.2,450.64,176.99z M451.42,184.54l2.02-0.5l4.35,17.71l-2.02,0.5L451.42,184.54z"/>
		<path d="M458.25,182.86l3.88-0.81l-1.21-5.76l2.04-0.43l1.21,5.76l6.07-1.27l0.39,1.88l-6.07,1.27l2.26,10.77
			c0.42,2,1.48,3.53,3.9,3.02c1.41-0.29,2.49-1.38,2.49-1.38l1.15,1.6c0,0-1.5,1.42-3.3,1.8c-3.48,0.73-5.58-1.28-6.2-4.22
			l-2.34-11.16l-3.88,0.81L458.25,182.86z"/>
		<path d="M492.95,185.84c0.06,0.36,0.06,0.4,0.09,0.84l-15.53,2.44c0.59,2.7,3.45,6.26,8.24,5.51c2.77-0.43,4.7-2.32,5.68-4.05
			l1.61,1.21c-1.41,2.37-4.01,4.4-6.97,4.86c-5.38,0.84-9.93-2.89-10.74-8.03c-0.8-5.1,2.03-10.04,7.4-10.88
			C487.51,176.97,492.08,180.3,492.95,185.84z M490.65,185.11c-0.4-2.04-2.86-6.11-7.61-5.37c-5.02,0.79-5.98,5.48-5.75,7.46
			L490.65,185.11z"/>
		<path d="M522.55,187.75l1.53,1.26c0,0-2.26,3.88-7.21,4.23c-5.43,0.38-9.68-3.66-10.04-8.93c-0.36-5.27,3.29-9.85,8.71-10.23
			c4.75-0.33,7.5,2.93,7.5,2.93l-1.39,1.42c0,0-2.14-2.58-5.97-2.31c-4.35,0.3-6.98,4.01-6.7,8.04c0.28,4.03,3.39,7.34,7.74,7.04
			C520.77,190.92,522.55,187.75,522.55,187.75z"/>
		<path d="M544.67,182.76c0.08,5.28-3.69,9.66-9.12,9.75c-5.44,0.09-9.35-4.17-9.43-9.45c-0.08-5.28,3.69-9.66,9.12-9.75
			C540.68,173.23,544.58,177.48,544.67,182.76z M542.51,182.8c-0.07-4.12-2.68-7.52-7.24-7.44c-4.56,0.07-7.06,3.55-7,7.67
			c0.07,4.12,2.68,7.52,7.24,7.44C540.07,190.4,542.58,186.92,542.51,182.8z"/>
		<path d="M562.22,192.7l-2.08-0.12l0.68-11.34c0.22-3.71-1.36-5.41-4.11-5.58c-3.43-0.21-5.2,3.21-5.2,3.21l-0.79,13.14l-2.08-0.12
			l1.09-18.21l1.88,0.11l-0.18,3.07c0,0,1.81-3.46,5.88-3.21c2.24,0.13,4.37,1.26,5.3,3.88c0.13-0.23,2.01-3.45,6.04-3.2
			c2.8,0.17,5.93,1.96,5.63,7.07l-0.72,11.98l-2.08-0.12l0.68-11.34c0.22-3.71-1.36-5.41-4.11-5.58c-3.43-0.21-5.04,3.22-5.04,3.22
			L562.22,192.7z"/>
		<path d="M581.54,176.09l2.07,0.24l-2.1,18.12l-2.07-0.24L581.54,176.09z M583.44,168.74c0.87,0.1,1.51,0.9,1.4,1.77
			c-0.1,0.87-0.9,1.51-1.77,1.41c-0.87-0.1-1.51-0.9-1.4-1.77C581.77,169.27,582.57,168.64,583.44,168.74z"/>
		<path d="M604.11,185.98l-1.82,11.5l-2.05-0.33l1.77-11.18c0.59-3.71-1.33-5.64-4.26-6.1c-3.99-0.63-6.21,3.15-6.21,3.15
			l-1.97,12.44l-2.05-0.33l2.85-18.01l1.86,0.29l-0.52,3.28c0,0,2.33-3.48,6.76-2.78C601.82,178.45,604.89,181.08,604.11,185.98z"/>
		<path d="M627.38,184.16l-4.03,18.24c-1.24,5.59-5.51,8.25-10.71,7.1c-5.23-1.16-7.36-5.44-7.36-5.44l1.69-1.14
			c0,0,1.58,3.59,6.12,4.59c4.57,1.01,7.34-1.49,8.22-5.48l0.77-3.48c-0.77,0.69-3.26,2.88-7.21,2.01
			c-4.92-1.09-7.98-5.78-6.75-11.33c1.23-5.55,5.98-8.51,10.9-7.42c4.69,1.04,5.81,5.22,5.81,5.22l0.73-3.28L627.38,184.16z
			 M624.1,189.37c0,0-0.92-4.55-5.53-5.57c-3.98-0.88-7.44,1.76-8.35,5.9c-0.92,4.14,1.1,7.99,5.09,8.87
			c4.61,1.02,7.36-2.72,7.36-2.72L624.1,189.37z"/>
		<path d="M640.59,201.7c0,0,0.78,3.64,4.9,4.94c1.91,0.6,4.78,0.67,5.5-1.62c0.62-1.98-1.32-3.27-3.83-4.73
			c-3.55-2.04-5.46-4.24-4.54-7.14c0.78-2.48,3.88-4.19,7.69-2.99c4.08,1.29,5.45,4.4,5.45,4.4l-1.75,1.04c0,0-1.18-2.51-4.31-3.5
			c-2.36-0.75-4.49-0.12-5.06,1.68c-0.67,2.14,1.42,3.47,4.16,5.04c3.01,1.75,5.25,3.71,4.26,6.84c-1.05,3.32-4.89,3.95-8.17,2.92
			c-5.15-1.62-6.27-6.04-6.27-6.04L640.59,201.7z"/>
		<path d="M674.83,209.08c-1.87,4.94-6.98,7.62-12.07,5.7c-5.09-1.92-7.15-7.32-5.29-12.26c1.87-4.94,6.98-7.62,12.07-5.7
			C674.62,198.74,676.69,204.14,674.83,209.08z M672.81,208.32c1.46-3.85,0.28-7.98-3.99-9.59c-4.27-1.61-7.88,0.7-9.33,4.56
			s-0.28,7.98,3.99,9.59C667.74,214.48,671.35,212.17,672.81,208.32z"/>
		<path d="M694.54,217.82c-2.16,4.82-7.43,7.19-12.4,4.96c-4.96-2.23-6.7-7.74-4.54-12.56c2.16-4.82,7.43-7.19,12.4-4.96
			S696.71,213.01,694.54,217.82z M692.57,216.94c1.69-3.76,0.76-7.95-3.4-9.81s-7.91,0.22-9.59,3.98c-1.69,3.76-0.76,7.95,3.4,9.81
			C687.14,222.79,690.89,220.7,692.57,216.94z"/>
		<path d="M712.96,224.52l-5.39,10.31l-1.84-0.96l5.24-10.03c1.74-3.33,0.53-5.77-2.09-7.14c-3.58-1.87-6.89,1-6.89,1l-5.83,11.17
			l-1.84-0.96l8.45-16.16l1.67,0.87l-1.54,2.94c0,0,3.32-2.55,7.29-0.48C713.19,216.65,715.26,220.13,712.96,224.52z"/>
	</g>
	<g>
		<path d="M716.06,861.46l-11.73-10.07l1.28,15.36l-1.07,0.54l-11.59-10.14l1.2,15.4l-1.93,0.98l-1.32-20.67l12.52,10.74
			l-1.21-16.47l15.84,13.32L716.06,861.46z"/>
		<path d="M670.03,872.83c-0.14-0.33-0.15-0.37-0.29-0.79l14.49-6.09c-1.22-2.48-4.85-5.25-9.32-3.37c-2.58,1.08-4,3.38-4.54,5.29
			l-1.85-0.79c0.8-2.64,2.84-5.23,5.6-6.39c5.02-2.11,10.33,0.43,12.35,5.22c2,4.76,0.44,10.23-4.58,12.34
			C677.44,880.13,672.21,877.99,670.03,872.83z M672.44,872.99c0.88,1.89,4.25,5.25,8.67,3.39c4.68-1.97,4.5-6.75,3.79-8.63
			L672.44,872.99z"/>
		<path d="M662.27,866.01l9.98,28.55l-1.93,0.67l-4.91-14.05c-0.22,0.84-1.2,3.98-5.12,5.35c-4.8,1.68-9.87-0.71-11.74-6.07
			s0.61-10.38,5.41-12.06c4.53-1.58,7.56,1.13,7.56,1.13l-1.02-2.91L662.27,866.01z M662.1,871.83c0,0-3.02-3.06-7.47-1.5
			c-3.85,1.35-5.44,5.42-4.04,9.42s5.18,6.2,9.03,4.85c4.46-1.56,4.91-5.83,4.91-5.83L662.1,871.83z"/>
		<path d="M642.83,877.63c0,0-2.66-2.61-6.81-1.42c-1.92,0.55-4.36,2.08-3.7,4.39c0.57,2,2.9,2,5.81,1.83
			c4.09-0.25,6.89,0.52,7.73,3.45c0.71,2.5-0.93,5.63-4.77,6.73c-4.11,1.18-6.97-0.67-6.97-0.67l0.89-1.83c0,0,2.37,1.44,5.52,0.54
			c2.38-0.68,3.81-2.38,3.29-4.19c-0.62-2.15-3.1-2.11-6.25-1.92c-3.48,0.2-6.42-0.2-7.32-3.35c-0.96-3.34,1.9-5.99,5.21-6.94
			c5.19-1.49,8.57,1.58,8.57,1.58L642.83,877.63z"/>
		<path d="M628.58,895.46l-2.02,0.5l-4.35-17.71l2.02-0.5L628.58,895.46z M629.36,903.01c-0.86,0.21-1.73-0.32-1.94-1.17
			s0.32-1.73,1.17-1.94c0.85-0.21,1.73,0.32,1.94,1.17S630.21,902.8,629.36,903.01z"/>
		<path d="M621.75,897.14l-3.88,0.81l1.21,5.76l-2.04,0.43l-1.21-5.76l-6.07,1.27l-0.39-1.88l6.07-1.27l-2.26-10.77
			c-0.42-2-1.48-3.53-3.9-3.02c-1.41,0.29-2.49,1.38-2.49,1.38l-1.15-1.6c0,0,1.5-1.42,3.3-1.8c3.48-0.73,5.58,1.28,6.2,4.22
			l2.34,11.16l3.88-0.81L621.75,897.14z"/>
		<path d="M587.05,894.16c-0.06-0.36-0.06-0.4-0.09-0.84l15.53-2.44c-0.59-2.7-3.45-6.26-8.24-5.51c-2.77,0.43-4.7,2.32-5.68,4.05
			l-1.61-1.21c1.41-2.37,4.01-4.4,6.97-4.86c5.38-0.84,9.93,2.89,10.74,8.03c0.8,5.1-2.03,10.04-7.4,10.88
			C592.49,903.03,587.92,899.7,587.05,894.16z M589.35,894.89c0.4,2.04,2.86,6.11,7.61,5.37c5.02-0.79,5.98-5.48,5.75-7.46
			L589.35,894.89z"/>
		<path d="M557.45,892.25l-1.53-1.26c0,0,2.26-3.88,7.21-4.23c5.43-0.38,9.68,3.66,10.04,8.93c0.36,5.27-3.29,9.85-8.71,10.23
			c-4.75,0.33-7.5-2.93-7.5-2.93l1.39-1.42c0,0,2.14,2.58,5.97,2.31c4.35-0.3,6.98-4.01,6.7-8.04c-0.28-4.03-3.39-7.34-7.74-7.04
			C559.23,889.08,557.45,892.25,557.45,892.25z"/>
		<path d="M535.33,897.24c-0.08-5.28,3.69-9.66,9.12-9.75c5.44-0.09,9.35,4.17,9.43,9.45c0.08,5.28-3.69,9.66-9.12,9.75
			C539.32,906.77,535.42,902.52,535.33,897.24z M537.49,897.2c0.07,4.12,2.68,7.52,7.24,7.44c4.56-0.07,7.06-3.55,7-7.67
			c-0.07-4.12-2.68-7.52-7.24-7.44C539.93,889.6,537.42,893.08,537.49,897.2z"/>
		<path d="M517.78,887.3l2.08,0.12l-0.68,11.34c-0.22,3.71,1.36,5.41,4.11,5.58c3.43,0.21,5.2-3.21,5.2-3.21l0.79-13.14l2.08,0.12
			l-1.09,18.21l-1.88-0.11l0.18-3.07c0,0-1.81,3.46-5.88,3.21c-2.24-0.13-4.37-1.26-5.3-3.88c-0.13,0.23-2.01,3.45-6.04,3.2
			c-2.8-0.17-5.93-1.96-5.63-7.07l0.72-11.98l2.08,0.12l-0.68,11.34c-0.22,3.71,1.36,5.41,4.11,5.58c3.43,0.21,5.04-3.22,5.04-3.22
			L517.78,887.3z"/>
		<path d="M496.56,911.26c-0.87-0.1-1.51-0.9-1.4-1.77c0.1-0.87,0.9-1.51,1.77-1.41c0.87,0.1,1.51,0.9,1.41,1.77
			C498.23,910.73,497.43,911.36,496.56,911.26z M498.46,903.91l-2.07-0.24l2.1-18.12l2.07,0.24L498.46,903.91z"/>
		<path d="M475.89,894.02l1.82-11.5l2.05,0.33l-1.77,11.18c-0.59,3.71,1.33,5.64,4.26,6.1c3.99,0.63,6.21-3.15,6.21-3.15l1.97-12.44
			l2.05,0.33l-2.85,18.01l-1.86-0.29l0.52-3.28c0,0-2.33,3.48-6.76,2.78C478.18,901.55,475.11,898.92,475.89,894.02z"/>
		<path d="M452.62,895.84l4.03-18.24c1.23-5.59,5.51-8.25,10.71-7.1c5.23,1.16,7.36,5.44,7.36,5.44l-1.69,1.14
			c0,0-1.58-3.59-6.11-4.59c-4.57-1.01-7.34,1.49-8.22,5.48l-0.77,3.48c0.77-0.69,3.26-2.88,7.21-2.01
			c4.92,1.09,7.98,5.78,6.76,11.33c-1.23,5.55-5.98,8.51-10.9,7.42c-4.69-1.04-5.81-5.22-5.81-5.22l-0.73,3.28L452.62,895.84z
			 M455.9,890.63c0,0,0.92,4.55,5.53,5.57c3.98,0.88,7.44-1.76,8.35-5.9s-1.1-7.99-5.09-8.87c-4.61-1.02-7.36,2.72-7.36,2.72
			L455.9,890.63z"/>
		<path d="M439.41,878.3c0,0-0.78-3.64-4.9-4.94c-1.91-0.6-4.78-0.67-5.5,1.62c-0.63,1.98,1.32,3.27,3.83,4.73
			c3.55,2.04,5.46,4.24,4.54,7.14c-0.78,2.48-3.88,4.19-7.69,2.99c-4.08-1.29-5.45-4.4-5.45-4.4l1.75-1.04c0,0,1.18,2.51,4.31,3.5
			c2.36,0.75,4.49,0.12,5.06-1.68c0.67-2.14-1.42-3.47-4.16-5.04c-3.01-1.75-5.25-3.71-4.26-6.84c1.05-3.32,4.89-3.95,8.17-2.92
			c5.15,1.62,6.27,6.04,6.27,6.04L439.41,878.3z"/>
		<path d="M405.17,870.92c1.87-4.94,6.98-7.62,12.07-5.7c5.09,1.92,7.15,7.32,5.29,12.26c-1.87,4.94-6.98,7.62-12.07,5.7
			C405.37,881.26,403.31,875.86,405.17,870.92z M407.19,871.68c-1.46,3.85-0.28,7.98,3.99,9.59c4.27,1.61,7.87-0.7,9.33-4.56
			s0.28-7.98-3.99-9.59C412.26,865.52,408.65,867.83,407.19,871.68z"/>
		<path d="M385.46,862.18c2.16-4.82,7.43-7.19,12.4-4.96s6.7,7.74,4.54,12.56c-2.16,4.82-7.43,7.19-12.4,4.96
			S383.29,866.99,385.46,862.18z M387.43,863.06c-1.69,3.76-0.76,7.95,3.4,9.81c4.16,1.87,7.91-0.22,9.59-3.98
			c1.69-3.76,0.76-7.95-3.4-9.81C392.86,857.21,389.11,859.3,387.43,863.06z"/>
		<path d="M367.04,855.48l5.39-10.31l1.84,0.96l-5.24,10.03c-1.74,3.33-0.53,5.77,2.09,7.14c3.58,1.87,6.89-1,6.89-1l5.83-11.17
			l1.84,0.96l-8.45,16.16l-1.67-0.87l1.54-2.94c0,0-3.32,2.55-7.29,0.48C366.81,863.35,364.74,859.87,367.04,855.48z"/>
	</g>
</g>
</svg>
