<svg id="Layer_1" data-name="Layer 1" xmlns="http://www.w3.org/2000/svg" xmlns:xlink="http://www.w3.org/1999/xlink" viewBox="0 0 468.85 333.13"><defs><style>.cls-1,.cls-2{fill:none;}.cls-2{clip-rule:evenodd;}.cls-3{clip-path:url(#clip-path);}.cls-4{clip-path:url(#clip-path-2);}.cls-5{isolation:isolate;}.cls-6{clip-path:url(#clip-path-3);}.cls-7{clip-path:url(#clip-path-4);}</style><clipPath id="clip-path" transform="translate(-165.51 -233.37)"><rect class="cls-1" x="180.93" y="248.79" width="438" height="302.28"/></clipPath><clipPath id="clip-path-2" transform="translate(-165.51 -233.37)"><rect class="cls-1" x="-1574.15" y="-513.08" width="3948.17" height="1826.03"/></clipPath><clipPath id="clip-path-3" transform="translate(-165.51 -233.37)"><rect class="cls-1" x="180.93" y="248.79" width="441.08" height="302.28"/></clipPath><clipPath id="clip-path-4" transform="translate(-165.51 -233.37)"><path class="cls-2" d="M618.93,462.51v.85q0,3.64-.26,7.22c0,.74-.12,1.46-.2,2.19l-.12,1.12c-.08.71-.18,1.43-.28,2.15-.05.36-.11.73-.16,1.09v0c-5.78,37.16-35.46,66.61-73.14,72.74l-2.22.33c-.73.1-1.47.2-2.21.28-.38,0-.75.09-1.13.12l-2.23.2c-2.26.16-4.54.25-6.83.25H269.71c-.74,0-1.49,0-2.22,0h-.07l-2.06-.07-.21,0c-.61,0-1.22-.06-1.83-.1-.14,0-.29,0-.44,0l-2-.18c-1.46-.14-2.9-.32-4.33-.53-38.75-5.65-69.31-35.89-74.75-74V476c-.11-.71-.2-1.41-.28-2.11h0c-.09-.71-.16-1.43-.22-2.15a.11.11,0,0,0,0-.05c-.06-.69-.12-1.38-.16-2.09s-.09-1.45-.12-2.18v0a3.45,3.45,0,0,1,3.49-3.51h41.85A3.45,3.45,0,0,1,229.8,467c0,.63.12,1.26.19,1.88s.19,1.25.3,1.86c.05.31.11.61.17.92l0,.14c.12.56.24,1.12.39,1.67s.31,1.19.5,1.78c.26.88.57,1.75.91,2.6a39.79,39.79,0,0,0,26.08,23.74,9.41,9.41,0,0,0,.91.25c.6.17,1.21.31,1.83.44.27.06.54.13.82.17l.24.05.8.14.94.15h0c.31,0,.61.09.93.12.74.09,1.48.16,2.23.21l.66,0c.64,0,1.3.05,1.95.05H530.15c20.87,0,38-15.69,39.86-35.72,0-.32.06-.65.08-1s0-.67.06-1l0-.9v-2.08c0-21.72-17.92-39.33-40-39.33H270.69c-49,0-89.47-38.57-89.76-86.69V336q0-3.39.26-6.71c.06-.74.12-1.46.2-2.19,0-.37.08-.75.12-1.12.09-.72.18-1.44.28-2.16v0c5.39-37.62,35.3-67.61,73.3-73.82.74-.12,1.48-.24,2.22-.33s1.47-.19,2.21-.28c.38,0,.75-.09,1.13-.12l2.23-.2c2.26-.16,4.54-.25,6.83-.25H530.15c.74,0,1.49,0,2.22,0h.07l2.06.07.21,0c.61,0,1.22.06,1.83.11l.44,0,2,.18c1.45.14,2.9.31,4.33.53,35.12,5.15,63.58,30.58,72.61,63.72.19.68.37,1.36.53,2a84.09,84.09,0,0,1,1.61,8.28v.06c.11.71.2,1.41.28,2.12s.16,1.43.22,2.14c0,0,0,.05,0,.06.06.68.11,1.35.15,2s.09,1.52.13,2.28a3.46,3.46,0,0,1-3.49,3.51H573.52a3.45,3.45,0,0,1-3.46-3.14c-.06-.67-.13-1.35-.22-2s-.16-1.16-.27-1.73c-.06-.35-.12-.7-.2-1.05q-.18-.84-.39-1.68l-.24-.89-.24-.82a.36.36,0,0,0,0-.11c-.18-.58-.36-1.14-.57-1.7-.1-.29-.21-.57-.32-.86-.22-.57-.46-1.13-.7-1.69a40,40,0,0,0-25.38-22l-.91-.25c-.6-.16-1.22-.31-1.83-.44l-.82-.17-.24-.05-.8-.14-.94-.15h0c-.31-.05-.61-.09-.93-.12-.74-.09-1.48-.16-2.23-.21l-.66,0c-.65,0-1.3,0-2,0H270.32c-20.6,0-38,15.06-40.37,34.72,0,.32-.07.65-.1,1s-.06.65-.09,1v0c0,.33,0,.66,0,1h0c0,.3,0,.59,0,.89s0,.48,0,.73c0,21.68,18,39.32,40,39.32H530.15c49,0,88.78,39,88.78,87.2"/></clipPath></defs><title>S_icon</title><g class="cls-3"><g class="cls-4"><g class="cls-5"><g class="cls-6"><g class="cls-7"><g class="cls-3"><rect width="468.85" height="333.13"/></g></g></g></g></g></g></svg>